<svg xmlns="http://www.w3.org/2000/svg" height="38" fill="currentColor" viewBox="0 0 520 114">
  <path fill="#efc2b3" d="M150 36V0H0v114h150Zm-6-30v30H78V6ZM6 6h66v66H6Zm66 102H6V78h66Zm72 0H78V42h66Z" />
  <path fill="#efc2b3"
    d="M35.5 17h6v44h-6zM53 17h6v44h-6zm-35 0h6v44h-6zm93.5 33a25 25 0 1 0 25 25 25 25 0 0 0-25-25m0 44a19 19 0 1 1 19-19 19 19 0 0 1-19 19m95.309-31.325-9.312-20.305h-5.913l.002 29.678h5.937V55.206l7.741 16.842h3.11l7.738-16.842v16.842h5.93V42.37h-5.926zm47.67-18.975a17.5 17.5 0 0 0-16.021 0 14.4 14.4 0 0 0-5.676 5.491 16.65 16.65 0 0 0 .006 16.083 14.25 14.25 0 0 0 5.671 5.463 16.8 16.8 0 0 0 7.787 1.927h.248a16.4 16.4 0 0 0 7.991-1.946 14.5 14.5 0 0 0 5.675-5.474 16.62 16.62 0 0 0-.006-16.063 14.43 14.43 0 0 0-5.675-5.481m.2 18.682a8.8 8.8 0 0 1-3.407 3.376 10.26 10.26 0 0 1-9.593 0 8.73 8.73 0 0 1-3.417-3.363 11.05 11.05 0 0 1-.026-10.274 8.73 8.73 0 0 1 3.407-3.394 9.8 9.8 0 0 1 4.858-1.211 9.65 9.65 0 0 1 4.81 1.209 8.8 8.8 0 0 1 3.38 3.384 11.04 11.04 0 0 1-.013 10.271Zm34.606-1.17L276.742 42.59l-.149-.22h-5.705v29.678h6.226V53.166l12.693 18.882h5.705V42.37h-6.227zM327.94 43.7a17.5 17.5 0 0 0-16.024 0 14.4 14.4 0 0 0-5.676 5.491 16.64 16.64 0 0 0 .006 16.083 14.25 14.25 0 0 0 5.672 5.463 16.8 16.8 0 0 0 7.786 1.927h.251a16.36 16.36 0 0 0 7.991-1.946 14.5 14.5 0 0 0 5.675-5.473 16.6 16.6 0 0 0-.006-16.064 14.44 14.44 0 0 0-5.675-5.481m.2 18.682a8.8 8.8 0 0 1-3.408 3.377 9.8 9.8 0 0 1-4.8 1.189 9.7 9.7 0 0 1-4.8-1.19 8.74 8.74 0 0 1-3.419-3.363 11.05 11.05 0 0 1-.024-10.274 8.7 8.7 0 0 1 3.4-3.394 10.26 10.26 0 0 1 9.668 0 8.8 8.8 0 0 1 3.379 3.384 11.05 11.05 0 0 1 .003 10.269Zm32.707-2.311h4.853v5.609a12.12 12.12 0 0 1-9.842-.3 8.5 8.5 0 0 1-3.458-3.36 10.4 10.4 0 0 1-1.257-5.21 9.7 9.7 0 0 1 1.33-5.127 8.95 8.95 0 0 1 3.6-3.382 10.9 10.9 0 0 1 5.151-1.2 18.4 18.4 0 0 1 5.167.676 10.7 10.7 0 0 1 3.971 2.157l.826.71v-6.31l-.207-.15a13.9 13.9 0 0 0-4.574-2.173 21.5 21.5 0 0 0-5.627-.681 17.6 17.6 0 0 0-8.264 1.9 13.7 13.7 0 0 0-5.647 5.445 17.61 17.61 0 0 0 .008 16.272 13.56 13.56 0 0 0 5.631 5.413l.474.233.011-.025a20.17 20.17 0 0 0 18.694-1.363l.237-.147V54.911h-11.077Zm69.44-18.113h-5.74l-11.926 29.678h6.435l2.59-6.606h11.5l2.633 6.606h6.391l-11.758-29.365Zm1.033 17.766h-7.845L427.4 49.45Zm45.254-17.766-9.306 20.305-9.313-20.305h-5.912l-.012 29.678h5.938V54.794l7.74 16.842h3.111l7.74-16.842v16.842h5.941V41.958zM404.4 57.222a9.5 9.5 0 0 0 1.649-5.623 9.14 9.14 0 0 0-2.779-7.193 11.07 11.07 0 0 0-7.683-2.448h-12.518v29.678h6.225v-10.5h4.883l5.554 10.5h6.483l-5.959-11.25a9.06 9.06 0 0 0 4.145-3.164m-4.579-5.62a3.7 3.7 0 0 1-1.351 3.125 6.15 6.15 0 0 1-3.8 1.1h-5.369v-8.561h5.345c3.526 0 5.171 1.367 5.172 4.334Z" />
</svg>